<?xml version="1.0" encoding="utf-8"?>
<!-- Generator: Adobe Illustrator 16.0.0, SVG Export Plug-In . SVG Version: 6.00 Build 0)  -->
<!DOCTYPE svg PUBLIC "-//W3C//DTD SVG 1.1//EN" "http://www.w3.org/Graphics/SVG/1.1/DTD/svg11.dtd">
<svg version="1.1" id="Layer_1" xmlns="http://www.w3.org/2000/svg" xmlns:xlink="http://www.w3.org/1999/xlink" x="0px" y="0px"
	 width="299.898px" height="118.683px" viewBox="0 0 299.898 118.683" enable-background="new 0 0 299.898 118.683"
	 xml:space="preserve">
<path fill="#0077C1" d="M94.272,105.33h12.002l-5.983-30.927h-6.274L76.03,105.33h5.988l2.657-4.867h8.408L94.272,105.33z
	 M87.335,95.591l3.404-6l1.135,6H87.335z"/>
<path d="M136.171,69.984h7.59l-3.79-19.583h-3.954l-11.413,19.583h3.798l1.678-3.086h5.32L136.171,69.984z M131.776,63.815
	l2.156-3.8l0.727,3.8H131.776z"/>
<path d="M189.306,69.984h7.607l-3.817-19.583h-3.964l-11.386,19.583h3.78l1.711-3.086h5.321L189.306,69.984z M184.916,63.815
	l2.155-3.8l0.717,3.8H184.916z"/>
<path d="M292.296,69.984h7.603l-3.788-19.583h-3.954l-11.397,19.583h3.793l1.688-3.086h5.31L292.296,69.984z M287.903,63.815
	l2.153-3.8l0.732,3.8H287.903z"/>
<polygon fill="#0077C1" points="109.002,105.33 112.551,74.114 122.333,74.114 119.084,105.33 "/>
<polygon points="261.611,69.975 263.826,50.492 269.945,50.492 267.91,69.975 "/>
<path fill="#0077C1" d="M151.233,84.426c0.277-10.869-14.449-10.309-14.449-10.309h-11.432l-3.556,31.215h10.639l1.354-11.471
	l5.167,11.757h11.197l-6.005-14.032C150.155,90.161,151.233,84.426,151.233,84.426 M140.881,83.569c0,0-1.923,6.021-6.533,4.874
	l1.074-10.309C135.422,78.135,141.955,76.41,140.881,83.569"/>
<path fill="#0077C1" d="M246.891,84.426c0.274-10.869-14.456-10.309-14.456-10.309H220.99l-3.535,31.215h10.611l1.376-11.471
	l5.163,11.757h11.209l-6.01-14.032C245.814,90.161,246.891,84.426,246.891,84.426 M236.533,83.569c0,0-1.928,6.021-6.533,4.874
	l1.074-10.309C231.074,78.135,237.627,76.41,236.533,83.569"/>
<path fill="#0077C1" d="M182.851,83.569c0-10.58-16.086-9.166-16.086-9.166h-10.896l-2.997,30.927h10.617l1.38-13.172
	C183.937,92.435,182.851,83.569,182.851,83.569 M172.485,82.999c0,0,0,6.008-7.076,6.008l0.834-10.576
	C166.243,78.431,172.76,77.56,172.485,82.999"/>
<path fill="#0077C1" d="M202.455,73.838c0,0-17.437,0-17.684,16.609c0,0-1.108,14.883,14.147,15.736c0,0,14.726,1.419,17.454-15.459
	C216.373,90.725,220.467,73.56,202.455,73.838 M205.734,91.016c-1.633,13.172-5.993,11.454-5.993,11.454
	c-6.002-0.578-4.624-13.744-4.624-13.744c1.913-13.172,7.338-10.877,7.338-10.877C208.722,78.715,205.734,91.016,205.734,91.016"/>
<polygon fill="#0077C1" points="275.498,74.117 267.871,74.117 258.044,74.117 249.607,74.117 249.071,77.281 257.709,77.281 
	254.503,105.332 264.592,105.332 267.533,77.281 274.957,77.281 "/>
<path fill="#0077C1" d="M296.48,75.279l-1.652-0.284c0,0-10.609-2.862-14.419,1.126c0,0-6.551,3.445,0.812,13.47l6.544,7.143
	c0,0,4.908,5.736-1.368,5.736c0,0-7.096,0.564-7.635-6.309h-1.906v6.018h1.366c0,0,3.528,4.294,10.353,4.294
	c0,0,10.089,0,8.992-10.882c0,0-0.556-4.866-8.992-10.313c0,0-7.354-6.563,1.089-7.994c0,0,5.449-0.592,5.449,4.573h1.368V75.279z"
	/>
<path d="M247.391,51.559l-0.952-0.171c0,0-6.294-1.679-8.542,0.683c0,0-3.847,2.028,0.501,7.955l3.85,4.224
	c0,0,2.901,3.376-0.813,3.376c0,0-4.191,0.355-4.5-3.714h-1.128v3.543h0.783c0,0,2.126,2.552,6.142,2.552c0,0,5.95,0,5.319-6.425
	c0,0-0.32-2.878-5.319-6.093c0,0-4.334-3.889,0.641-4.742c0,0,3.216-0.333,3.216,2.713h0.803V51.559z"/>
<polygon points="167.527,67.371 161.893,67.371 163.674,50.494 157.557,50.494 155.335,69.975 161.621,69.975 161.621,69.96 
	167.241,69.96 "/>
<polygon points="94.928,69.933 97.656,50.455 103.088,50.455 105.817,59.827 110.361,50.663 116.351,50.663 114.352,70.119 
	107.985,70.119 108.542,62.68 104.544,69.933 102,69.933 99.098,62.479 97.997,69.933 "/>
<polygon points="208.015,50.492 212.05,61.186 210.992,69.803 217.836,69.803 218.534,61.425 226.4,50.492 222.924,50.492 
	217.475,58.88 214.146,50.365 "/>
<polygon fill="#F7941E" points="78.698,68.832 54.855,68.832 51.603,60.659 83.99,60.659 "/>
<rect x="58.741" y="70.976" fill="#F7941E" width="14.329" height="13.9"/>
<rect x="58.741" y="107.919" fill="#F7941E" width="14.329" height="10.764"/>
<polyline fill="#F7941E" points="76.635,23.331 91.01,23.331 91.01,20.862 77.624,20.862 "/>
<polyline fill="#F7941E" points="73.635,20.862 44.096,20.862 44.096,23.331 72.617,23.331 "/>
<polyline fill="#F7941E" points="63.294,33.804 53.597,33.804 48.61,25.624 69.622,25.624 "/>
<polyline fill="#F7941E" points="74.619,25.624 86.496,25.624 81.201,33.804 70.63,33.804 "/>
<polyline fill="#F7941E" points="59.276,51.474 94.585,51.474 89.288,59.022 55.946,59.022 "/>
<polyline fill="#F7941E" points="43.824,57.201 40.036,51.474 48.943,51.474 "/>
<polyline fill="#F7941E" points="58.286,40.039 46.438,40.039 48.921,36.095 61.285,36.095 "/>
<polyline fill="#F7941E" points="68.298,36.095 84.783,36.095 87.719,40.039 66.299,40.039 "/>
<polyline fill="#F7941E" points="65.619,42.001 88.83,42.001 93.2,48.87 60.617,48.87 "/>
<polyline fill="#F7941E" points="51.603,48.87 40.665,48.87 45.031,41.999 56.937,41.999 "/>
<polygon fill="#0077C1" points="91.285,0 88.544,1.706 85.595,6.044 85.554,6.01 73.562,7.152 80.922,9.151 81.908,11.444 
	79.566,14.87 76.295,15.462 81.47,18.88 81.47,15.722 83.731,12.587 85.554,12.587 89.647,20.025 87.727,8.019 87.289,7.588 
	90.475,3.137 "/>
<path fill="#0077C1" d="M81.648,89.868l1.728-3.14H41.397l39.525-68.996l-3.528-2.273l-61.33,71.553H11.18L0,105.618h72.47
	l1.437-2.305h-25.47l1.596-1.996h24.946l1.01-1.723H51.38l1.542-1.982h24.247l0.957-1.884H54.461l1.282-1.841h23.551l1.375-2.305
	H57.645l1.495-1.715H81.648z M38.965,97.879H14.439l64.562-80.995L28.864,94.749h11.454L38.965,97.879z"/>
</svg>
