<svg xmlns="http://www.w3.org/2000/svg" version="1.1" x="0" y="0" xml:space="preserve" id="svg72" width="623.6" height="310.1"><style type="text/css" id="style2">.st2{fill:#fff}</style><g id="Layer_2" transform="translate(-14.9 -171.8)"><path id="rect43" fill="#ed1d24" d="M14.9 171.8h343.4v310.1H14.9z"/><g id="g49"><path d="M389.8 368.1h13.5v-23.5h.2c3.2 4.9 8.9 7.4 14.8 7.4 14.4 0 21.7-12.3 21.7-25.5 0-14-7-26.6-22.4-26.6-6.1 0-11.5 2.4-14.7 7.7h-.2v-6.3h-12.9zm24.9-26.3c-8.8 0-11.8-7.7-11.8-15.7 0-8 2.9-15.9 11.7-15.9 8.7 0 11.9 8.1 11.9 15.9 0 8.1-2.9 15.7-11.8 15.7" id="path45"/><path d="M447.1 350.7h13.6v-22.2c0-8.7 3.4-15.8 13.4-15.8 1.6 0 3.6.2 4.9.5v-12.6c-.9-.3-2-.5-3-.5-6.6 0-13.3 4.3-15.8 10.5h-.2v-9.2h-12.9z" id="path47"/></g><path d="M485.2 350.7h13.5v-49.4h-13.5zm13.5-68.2h-13.5v11.2h13.5z" id="path51"/><g id="g63"><path d="M507.3 350.7h13.6V322c0-9.6 6.5-11.4 9.2-11.4 8.6 0 8.2 6.6 8.2 12.3v27.7h13.6v-27.5c0-6.2 1.4-12.5 9.1-12.5 7.7 0 8.3 5.5 8.3 12.1v28h13.6v-33c0-12.8-7.5-17.7-18-17.7-6.9 0-12 4-14.9 8.3-2.7-6-8.2-8.3-14.4-8.3-6.4 0-11.6 3-15.1 8.1h-.2v-6.7h-12.8v49.3z" id="path53"/><path d="M623.2 331.6c0 3-.4 11.4-11 11.4-4.4 0-8.3-1.2-8.3-6.3 0-5 3.8-6.4 8-7.3 4.2-.8 9-.8 11.3-2.9zm-17.8-15.1c.5-5.3 3.8-7.4 9-7.4 4.8 0 8.8.8 8.8 6.6 0 5.6-7.8 5.3-16.1 6.5-8.4 1.2-16.8 3.8-16.8 15 0 10.1 7.4 14.8 16.8 14.8 6 0 12.3-1.6 16.6-6.1.1 1.7.5 3.2 1 4.8h13.8c-1.3-2-1.7-6.5-1.7-11V314c0-11.9-11.8-14.1-21.7-14.1-11.1 0-22.4 3.8-23.2 16.5h13.5z" id="path55"/><path class="st2" d="M52.9 350.7h13.6V322c0-9.6 6.5-11.4 9.1-11.4 8.6 0 8.2 6.6 8.2 12.3v27.7h13.5v-27.5c0-6.2 1.4-12.5 9.1-12.5 7.7 0 8.3 5.5 8.3 12.1v28h13.6v-33c0-12.8-7.6-17.7-18.1-17.7-6.9 0-12 4-14.9 8.3-2.7-6-8.2-8.3-14.4-8.3-6.4 0-11.5 3-15.1 8.1h-.2v-6.7H52.9z" id="path57" fill="#fff"/><path class="st2" d="M183.6 329.3c.9-15.2-7.2-29.3-24-29.3-15 0-25.2 11.3-25.2 26.1 0 15.3 9.6 26 25.2 26 11.2 0 19.3-5 23.1-16.6h-11.9c-.9 3-5.3 6.4-10.7 6.4-7.6 0-11.8-3.9-12.1-12.5h35.6zm-35.6-8.6c.2-3.8 2.7-10.5 11.3-10.5 6.6 0 9.5 3.6 10.8 10.5z" id="path59" fill="#fff"/><path class="st2" d="M227.1 350.7H240v-68.2h-13.5v24.8h-.2.1c-3.2-4.9-8.9-7.4-14.7-7.4-14.5 0-21.9 12.3-21.9 25.6 0 13.6 7.3 26.4 22.2 26.4 6.3 0 11.8-2.3 15-7.7h.2v6.5zm-.2-24.9c0 8.1-2.7 16-11.7 16-8.4 0-11.9-8.1-11.9-15.9 0-8.1 3.1-15.7 11.9-15.7 8.9 0 11.7 7.6 11.7 15.6" id="path61" fill="#fff"/></g><path class="st2" d="M249.6 350.7h13.5v-49.4h-13.5zm13.6-68.2h-13.5v11.2h13.5z" id="path65" fill="#fff"/><g id="g69"><path class="st2" d="M303.6 331.6c0 3-.4 11.4-11 11.4-4.4 0-8.3-1.2-8.3-6.3 0-5 3.8-6.4 8-7.3 4.2-.8 9-.8 11.2-2.9v5.1zm-17.7-15.1c.5-5.3 3.8-7.4 9-7.4 4.7 0 8.8.8 8.8 6.6 0 5.6-7.7 5.3-16 6.5-8.4 1.2-16.8 3.8-16.8 15 0 10.1 7.4 14.8 16.8 14.8 6 0 12.3-1.6 16.6-6.1.1 1.7.5 3.2 1 4.8H319c-1.2-2-1.7-6.5-1.7-11V314c0-11.9-11.9-14.1-21.6-14.1-11.1 0-22.5 3.8-23.2 16.5h13.4z" id="path67" fill="#fff"/></g></g></svg>