<?xml version="1.0" encoding="utf-8"?>
<!-- Generator: Adobe Illustrator 20.1.0, SVG Export Plug-In . SVG Version: 6.00 Build 0)  -->
<svg version="1.1" id="Layer_1" xmlns="http://www.w3.org/2000/svg" xmlns:xlink="http://www.w3.org/1999/xlink" x="0px" y="0px"
	 viewBox="0 0 256 233.3" width="331.25513041" height="301.882116893" style="enable-background:new 0 0 256 233.3;" xml:space="preserve">
<style type="text/css">
	.st0{fill:#262261;}
	.st1{fill:#EC2027;}
	.st2{fill:#29ABE2;}
	.st3{fill:#FFFFFF;}
</style>
<path class="st0" d="M155,93.5c-7.1-6.8-15.9-17.6-19.4-23.3c-6.2-10.1-7.7-19-7.7-19s-1.6,8.9-7.9,19c-5.9,9.5-16.2,20.2-19.6,23.7
	c-7,7-11.4,16.8-11.4,27.5c0,21.5,17.4,38.9,38.9,38.9c21.5,0,38.9-17.4,38.9-38.9C166.8,110.5,162.4,100.6,155,93.5"/>
<path class="st1" d="M159.7,121.5c0,17.6-14.2,31.8-31.8,31.8S96.1,139,96.1,121.5c0-17.6,14.2-31.8,31.8-31.8
	S159.7,103.9,159.7,121.5"/>
<path class="st2" d="M180.6,79.7c-4.1-7.1-8.5-13.1-12.8-18.1c-8.4-9.8-14.5-16.4-19.8-24.2c-5-7.2-8-13.4-8-19.7
	c0-6.1,2.5-12.7,2.5-12.7l-0.1-0.5c-7.3,17.6-11.5,28.1-10.1,43.1c1.5,16,12.3,28.8,22.3,39.5c8,8.6,12.9,14.1,15.1,24
	c1.6,6.9,3.3,21.4-7,35.4c-12.3,16.7-32.3,17.3-32.3,17.3v5c0,0,23.7-0.9,39.9-15.6c11.2-10.1,15.1-19,18-32.6
	C190.8,109,187.9,92.5,180.6,79.7"/>
<path class="st2" d="M93.2,146.5c-10.3-14-8.5-28.5-7-35.4c2.2-9.9,7.1-15.4,15.1-24c10-10.7,20.8-23.5,22.3-39.5
	c1.4-15-2.8-25.5-10.1-43.1l-0.1,0.5c0,0,2.5,6.5,2.5,12.7c0,6.3-3.1,12.5-8,19.7c-5.4,7.8-11.4,14.4-19.8,24.2
	c-4.3,5-8.7,10.9-12.8,18.1C68,92.5,65,109,67.5,120.6c2.9,13.6,6.9,22.5,18.1,32.6c16.1,14.7,39.9,15.6,39.9,15.6v-5
	C125.4,163.8,105.5,163.2,93.2,146.5"/>
<path class="st3" d="M142.3,137.5l-5.4-32.4h4v-5.3H136l-1.6-9.6l-0.1-0.4h2.2v-4.8H132l-1.1-5.9H125l-1.1,5.9h-4.6V90h2.2l-0.1,0.4
	l-1.6,9.6h-4.8v5.3h3.9l-5.4,32.4h-5.5v5.7h3.3v5.2c1.9,1.2,3.9,2.1,6,2.9v-8.1h21.3v8.1c2.1-0.8,4.1-1.7,6-2.9v-5.2h3.3v-5.7
	 M134.6,105.1l1.7,10l-6.8-10H134.6z M127.9,91.7l5.1,8.1h-10.2L127.9,91.7z M122.9,95.5l0.9-5.6h2.6L122.9,95.5z M129.5,90h2.6
	l0.9,5.6L129.5,90z M135.5,118.1h-15.1l7.6-11.1L135.5,118.1z M121.3,105.1h5.1l-6.8,10L121.3,105.1z M118.7,120.5h7.7l-10,14.2
	L118.7,120.5z M117.1,137.5l10.8-15.2l10.8,15.2H117.1z M129.5,120.5h7.7l2.4,14.2L129.5,120.5z"/>
<path class="st0" d="M50.9,189.4h44v9.7H79.4v31.4h-13v-31.4H50.9 M105.8,199.1h15.5v31.4h13v-31.4h15.5v-9.7h-44V199.1z
	 M39.5,193.2c2.7,2.6,4.1,6,4.1,9.9c0,3.9-1.4,7.4-4.1,10c-2.7,2.6-6.2,3.9-10.2,3.9H12.9v13.4h-13v-41.1h29.5
	C33.3,189.4,36.8,190.7,39.5,193.2 M33,203.2c0-1.6-0.4-2.6-0.9-3.2c-0.5-0.5-1.3-0.9-2.8-0.9H12.9v8.3h16.5c1.5,0,2.3-0.4,2.8-0.9
	C32.6,205.8,33,204.8,33,203.2 M256,203.2c0,3.9-1.4,7.4-4.1,10c-2.7,2.6-6.2,3.9-10.2,3.9h-16.5v13.4h-13v-41.1h29.5
	c3.9,0,7.4,1.3,10.2,3.9C254.6,195.8,256,199.2,256,203.2 M245.4,203.2c0-1.6-0.4-2.6-0.9-3.2c-0.5-0.5-1.3-0.9-2.8-0.9h-16.5v8.3
	h16.5c1.5,0,2.2-0.4,2.8-0.9C245,205.8,245.4,204.8,245.4,203.2 M173.7,199.1h25.6l3.8-9.7H161v26.2c0,4.1,1.7,8.1,4.4,10.6
	c3.5,3,8.6,4.3,13.5,4.3h23.4v-9.7h-21.7c-2.6,0-4.1-0.6-5.4-1.6c-1.2-1-1.5-1.9-1.6-3.6v-1.8h19.8l3.6-9.2h-23.4v-2V199.1z"/>
<g>
</g>
<g>
</g>
<g>
</g>
<g>
</g>
<g>
</g>
<g>
</g>
<g>
</g>
<g>
</g>
<g>
</g>
<g>
</g>
<g>
</g>
<g>
</g>
<g>
</g>
<g>
</g>
<g>
</g>
</svg>
